<mxfile host="app.diagrams.net" modified="2022-07-10T20:32:19.191Z" agent="5.0 (Windows NT 10.0; Win64; x64) AppleWebKit/537.36 (KHTML, like Gecko) Chrome/103.0.0.0 Safari/537.36" etag="xhrqIt65EtCARy_YSdTP" version="20.0.4" type="github">
  <diagram id="x1stXme_lI0jsgs1N3h_" name="Page-1">
    <mxGraphModel dx="3038" dy="2234" grid="1" gridSize="10" guides="1" tooltips="1" connect="1" arrows="1" fold="1" page="1" pageScale="1" pageWidth="850" pageHeight="1100" math="0" shadow="0">
      <root>
        <mxCell id="0" />
        <mxCell id="1" parent="0" />
        <mxCell id="La3-25jKobvIbMl1DCS8-1" style="rounded=0;orthogonalLoop=1;jettySize=auto;html=1;exitX=0.5;exitY=1;exitDx=0;exitDy=0;entryX=1;entryY=0;entryDx=0;entryDy=0;endArrow=none;endFill=0;" parent="1" source="La3-25jKobvIbMl1DCS8-3" target="La3-25jKobvIbMl1DCS8-42" edge="1">
          <mxGeometry relative="1" as="geometry" />
        </mxCell>
        <mxCell id="La3-25jKobvIbMl1DCS8-2" value="0..N" style="edgeLabel;html=1;align=center;verticalAlign=middle;resizable=0;points=[];" parent="La3-25jKobvIbMl1DCS8-1" vertex="1" connectable="0">
          <mxGeometry x="-0.6" y="-2" relative="1" as="geometry">
            <mxPoint x="2" y="8" as="offset" />
          </mxGeometry>
        </mxCell>
        <mxCell id="La3-25jKobvIbMl1DCS8-3" value="Provincia" style="rounded=0;whiteSpace=wrap;html=1;" parent="1" vertex="1">
          <mxGeometry x="165" y="390" width="120" height="60" as="geometry" />
        </mxCell>
        <mxCell id="La3-25jKobvIbMl1DCS8-4" value="Pertenece" style="rhombus;whiteSpace=wrap;html=1;" parent="1" vertex="1">
          <mxGeometry x="540" y="390" width="120" height="60" as="geometry" />
        </mxCell>
        <mxCell id="La3-25jKobvIbMl1DCS8-5" value="Comunidad AutÃ³noma" style="rounded=0;whiteSpace=wrap;html=1;" parent="1" vertex="1">
          <mxGeometry x="730" y="390" width="120" height="60" as="geometry" />
        </mxCell>
        <mxCell id="La3-25jKobvIbMl1DCS8-6" value="PROVINCIA" style="ellipse;whiteSpace=wrap;html=1;" parent="1" vertex="1">
          <mxGeometry x="210" y="200" width="100" height="40" as="geometry" />
        </mxCell>
        <mxCell id="La3-25jKobvIbMl1DCS8-7" value="&lt;u&gt;COD_PROVINCIA&lt;/u&gt;" style="ellipse;whiteSpace=wrap;html=1;" parent="1" vertex="1">
          <mxGeometry x="295" y="270" width="120" height="40" as="geometry" />
        </mxCell>
        <mxCell id="La3-25jKobvIbMl1DCS8-8" value="" style="endArrow=none;html=1;rounded=0;entryX=0;entryY=1;entryDx=0;entryDy=0;exitX=0.5;exitY=0;exitDx=0;exitDy=0;" parent="1" source="La3-25jKobvIbMl1DCS8-3" target="La3-25jKobvIbMl1DCS8-7" edge="1">
          <mxGeometry width="50" height="50" relative="1" as="geometry">
            <mxPoint x="405" y="530" as="sourcePoint" />
            <mxPoint x="455" y="480" as="targetPoint" />
          </mxGeometry>
        </mxCell>
        <mxCell id="La3-25jKobvIbMl1DCS8-9" value="" style="endArrow=none;html=1;rounded=0;entryX=0.5;entryY=1;entryDx=0;entryDy=0;exitX=0.5;exitY=0;exitDx=0;exitDy=0;" parent="1" source="La3-25jKobvIbMl1DCS8-3" target="La3-25jKobvIbMl1DCS8-6" edge="1">
          <mxGeometry width="50" height="50" relative="1" as="geometry">
            <mxPoint x="405" y="530" as="sourcePoint" />
            <mxPoint x="455" y="480" as="targetPoint" />
          </mxGeometry>
        </mxCell>
        <mxCell id="La3-25jKobvIbMl1DCS8-10" value="CCAA" style="ellipse;whiteSpace=wrap;html=1;" parent="1" vertex="1">
          <mxGeometry x="650" y="250" width="100" height="40" as="geometry" />
        </mxCell>
        <mxCell id="La3-25jKobvIbMl1DCS8-11" value="&lt;u&gt;COD_CCAA&lt;/u&gt;" style="ellipse;whiteSpace=wrap;html=1;" parent="1" vertex="1">
          <mxGeometry x="780" y="220" width="100" height="40" as="geometry" />
        </mxCell>
        <mxCell id="La3-25jKobvIbMl1DCS8-12" value="" style="endArrow=none;html=1;rounded=0;exitX=0.25;exitY=0;exitDx=0;exitDy=0;" parent="1" source="La3-25jKobvIbMl1DCS8-5" target="La3-25jKobvIbMl1DCS8-10" edge="1">
          <mxGeometry width="50" height="50" relative="1" as="geometry">
            <mxPoint x="670" y="380" as="sourcePoint" />
            <mxPoint x="720" y="330" as="targetPoint" />
          </mxGeometry>
        </mxCell>
        <mxCell id="La3-25jKobvIbMl1DCS8-13" value="" style="endArrow=none;html=1;rounded=0;entryX=0.5;entryY=1;entryDx=0;entryDy=0;exitX=0.75;exitY=0;exitDx=0;exitDy=0;" parent="1" source="La3-25jKobvIbMl1DCS8-5" target="La3-25jKobvIbMl1DCS8-11" edge="1">
          <mxGeometry width="50" height="50" relative="1" as="geometry">
            <mxPoint x="870" y="400" as="sourcePoint" />
            <mxPoint x="920" y="350" as="targetPoint" />
          </mxGeometry>
        </mxCell>
        <mxCell id="La3-25jKobvIbMl1DCS8-14" value="" style="endArrow=none;html=1;rounded=0;strokeColor=default;exitX=1;exitY=0.5;exitDx=0;exitDy=0;entryX=0;entryY=0.5;entryDx=0;entryDy=0;" parent="1" source="La3-25jKobvIbMl1DCS8-3" target="La3-25jKobvIbMl1DCS8-4" edge="1">
          <mxGeometry width="50" height="50" relative="1" as="geometry">
            <mxPoint x="275" y="450" as="sourcePoint" />
            <mxPoint x="344.99999999999955" y="419.9999999999998" as="targetPoint" />
          </mxGeometry>
        </mxCell>
        <mxCell id="La3-25jKobvIbMl1DCS8-15" value="1..1" style="edgeLabel;html=1;align=center;verticalAlign=middle;resizable=0;points=[];" parent="La3-25jKobvIbMl1DCS8-14" vertex="1" connectable="0">
          <mxGeometry x="-0.2" relative="1" as="geometry">
            <mxPoint x="6" as="offset" />
          </mxGeometry>
        </mxCell>
        <mxCell id="La3-25jKobvIbMl1DCS8-16" value="" style="endArrow=none;html=1;rounded=0;strokeColor=default;exitX=1;exitY=0.5;exitDx=0;exitDy=0;entryX=0;entryY=0.5;entryDx=0;entryDy=0;" parent="1" source="La3-25jKobvIbMl1DCS8-4" target="La3-25jKobvIbMl1DCS8-5" edge="1">
          <mxGeometry width="50" height="50" relative="1" as="geometry">
            <mxPoint x="670" y="419.5" as="sourcePoint" />
            <mxPoint x="770" y="419.5" as="targetPoint" />
          </mxGeometry>
        </mxCell>
        <mxCell id="La3-25jKobvIbMl1DCS8-17" value="1..N" style="edgeLabel;html=1;align=center;verticalAlign=middle;resizable=0;points=[];" parent="La3-25jKobvIbMl1DCS8-16" vertex="1" connectable="0">
          <mxGeometry x="0.2145" y="-1" relative="1" as="geometry">
            <mxPoint x="-13" y="-1" as="offset" />
          </mxGeometry>
        </mxCell>
        <mxCell id="La3-25jKobvIbMl1DCS8-18" value="Vacuna" style="rounded=0;whiteSpace=wrap;html=1;" parent="1" vertex="1">
          <mxGeometry x="-430" y="390" width="120" height="60" as="geometry" />
        </mxCell>
        <mxCell id="La3-25jKobvIbMl1DCS8-19" value="&lt;u&gt;Tipo&lt;/u&gt;" style="ellipse;whiteSpace=wrap;html=1;" parent="1" vertex="1">
          <mxGeometry x="-560" y="290" width="100" height="40" as="geometry" />
        </mxCell>
        <mxCell id="La3-25jKobvIbMl1DCS8-20" value="" style="endArrow=none;html=1;rounded=0;strokeColor=default;entryX=0.25;entryY=0;entryDx=0;entryDy=0;exitX=1;exitY=1;exitDx=0;exitDy=0;" parent="1" source="La3-25jKobvIbMl1DCS8-19" target="La3-25jKobvIbMl1DCS8-18" edge="1">
          <mxGeometry width="50" height="50" relative="1" as="geometry">
            <mxPoint x="-710" y="490" as="sourcePoint" />
            <mxPoint x="-660" y="440" as="targetPoint" />
          </mxGeometry>
        </mxCell>
        <mxCell id="La3-25jKobvIbMl1DCS8-21" value="Total_administradas" style="ellipse;whiteSpace=wrap;html=1;" parent="1" vertex="1">
          <mxGeometry x="-660" y="400" width="120" height="40" as="geometry" />
        </mxCell>
        <mxCell id="La3-25jKobvIbMl1DCS8-22" value="" style="endArrow=none;html=1;rounded=0;strokeColor=default;entryX=0;entryY=0.5;entryDx=0;entryDy=0;exitX=1;exitY=0.5;exitDx=0;exitDy=0;" parent="1" source="La3-25jKobvIbMl1DCS8-21" target="La3-25jKobvIbMl1DCS8-18" edge="1">
          <mxGeometry width="50" height="50" relative="1" as="geometry">
            <mxPoint x="-560" y="510" as="sourcePoint" />
            <mxPoint x="-460" y="460" as="targetPoint" />
          </mxGeometry>
        </mxCell>
        <mxCell id="La3-25jKobvIbMl1DCS8-23" value="Recibidas" style="ellipse;whiteSpace=wrap;html=1;" parent="1" vertex="1">
          <mxGeometry x="-640" y="500" width="130" height="30" as="geometry" />
        </mxCell>
        <mxCell id="La3-25jKobvIbMl1DCS8-24" value="" style="endArrow=none;html=1;rounded=0;strokeColor=default;entryX=0.25;entryY=1;entryDx=0;entryDy=0;exitX=0.5;exitY=0;exitDx=0;exitDy=0;" parent="1" source="La3-25jKobvIbMl1DCS8-23" target="La3-25jKobvIbMl1DCS8-18" edge="1">
          <mxGeometry width="50" height="50" relative="1" as="geometry">
            <mxPoint x="-650" y="540" as="sourcePoint" />
            <mxPoint x="-570" y="450" as="targetPoint" />
          </mxGeometry>
        </mxCell>
        <mxCell id="La3-25jKobvIbMl1DCS8-25" value="Porcentaje Adm/Reciv" style="ellipse;whiteSpace=wrap;html=1;dashed=1;" parent="1" vertex="1">
          <mxGeometry x="-510" y="550" width="160" height="50" as="geometry" />
        </mxCell>
        <mxCell id="La3-25jKobvIbMl1DCS8-26" value="" style="endArrow=none;html=1;rounded=0;strokeColor=default;exitX=0.5;exitY=0;exitDx=0;exitDy=0;entryX=0.5;entryY=1;entryDx=0;entryDy=0;" parent="1" source="La3-25jKobvIbMl1DCS8-25" target="La3-25jKobvIbMl1DCS8-18" edge="1">
          <mxGeometry width="50" height="50" relative="1" as="geometry">
            <mxPoint x="-420" y="570" as="sourcePoint" />
            <mxPoint x="-440" y="450" as="targetPoint" />
          </mxGeometry>
        </mxCell>
        <mxCell id="La3-25jKobvIbMl1DCS8-27" value="Administradas" style="rhombus;whiteSpace=wrap;html=1;" parent="1" vertex="1">
          <mxGeometry x="-140" y="390" width="120" height="60" as="geometry" />
        </mxCell>
        <mxCell id="La3-25jKobvIbMl1DCS8-28" value="" style="endArrow=none;html=1;rounded=0;entryX=0;entryY=0.5;entryDx=0;entryDy=0;exitX=1;exitY=0.5;exitDx=0;exitDy=0;" parent="1" source="La3-25jKobvIbMl1DCS8-27" target="La3-25jKobvIbMl1DCS8-3" edge="1">
          <mxGeometry width="50" height="50" relative="1" as="geometry">
            <mxPoint x="244.64" y="550.86" as="sourcePoint" />
            <mxPoint x="210" y="420" as="targetPoint" />
          </mxGeometry>
        </mxCell>
        <mxCell id="La3-25jKobvIbMl1DCS8-29" value="0..N" style="edgeLabel;html=1;align=center;verticalAlign=middle;resizable=0;points=[];" parent="La3-25jKobvIbMl1DCS8-28" vertex="1" connectable="0">
          <mxGeometry x="0.25" y="-1" relative="1" as="geometry">
            <mxPoint x="-39" as="offset" />
          </mxGeometry>
        </mxCell>
        <mxCell id="La3-25jKobvIbMl1DCS8-30" value="" style="endArrow=none;html=1;rounded=0;entryX=0;entryY=0.5;entryDx=0;entryDy=0;exitX=1;exitY=0.5;exitDx=0;exitDy=0;" parent="1" source="La3-25jKobvIbMl1DCS8-18" target="La3-25jKobvIbMl1DCS8-27" edge="1">
          <mxGeometry width="50" height="50" relative="1" as="geometry">
            <mxPoint x="-320" y="520" as="sourcePoint" />
            <mxPoint x="-240" y="450" as="targetPoint" />
          </mxGeometry>
        </mxCell>
        <mxCell id="La3-25jKobvIbMl1DCS8-31" value="0..N" style="edgeLabel;html=1;align=center;verticalAlign=middle;resizable=0;points=[];" parent="La3-25jKobvIbMl1DCS8-30" vertex="1" connectable="0">
          <mxGeometry x="-0.4" y="-2" relative="1" as="geometry">
            <mxPoint x="61" y="-2" as="offset" />
          </mxGeometry>
        </mxCell>
        <mxCell id="La3-25jKobvIbMl1DCS8-32" value="Anotacion" style="rounded=0;whiteSpace=wrap;html=1;" parent="1" vertex="1">
          <mxGeometry x="-70" y="650" width="120" height="60" as="geometry" />
        </mxCell>
        <mxCell id="La3-25jKobvIbMl1DCS8-33" value="Municipio" style="rounded=0;whiteSpace=wrap;html=1;" parent="1" vertex="1">
          <mxGeometry x="350" y="590" width="120" height="60" as="geometry" />
        </mxCell>
        <mxCell id="La3-25jKobvIbMl1DCS8-34" value="&lt;u&gt;Tipo_dato&lt;/u&gt;" style="ellipse;whiteSpace=wrap;html=1;" parent="1" vertex="1">
          <mxGeometry x="-15" y="780" width="100" height="40" as="geometry" />
        </mxCell>
        <mxCell id="La3-25jKobvIbMl1DCS8-35" value="" style="endArrow=none;html=1;rounded=0;entryX=0.5;entryY=0;entryDx=0;entryDy=0;exitX=0.75;exitY=1;exitDx=0;exitDy=0;" parent="1" source="La3-25jKobvIbMl1DCS8-32" target="La3-25jKobvIbMl1DCS8-34" edge="1">
          <mxGeometry width="50" height="50" relative="1" as="geometry">
            <mxPoint x="-75.00000000000045" y="724.9999999999998" as="sourcePoint" />
            <mxPoint x="4.999999999999545" y="625" as="targetPoint" />
          </mxGeometry>
        </mxCell>
        <mxCell id="La3-25jKobvIbMl1DCS8-36" value="Cantidad" style="ellipse;whiteSpace=wrap;html=1;" parent="1" vertex="1">
          <mxGeometry x="-140" y="770" width="100" height="40" as="geometry" />
        </mxCell>
        <mxCell id="La3-25jKobvIbMl1DCS8-37" value="" style="endArrow=none;html=1;rounded=0;entryX=0.5;entryY=0;entryDx=0;entryDy=0;exitX=0.25;exitY=1;exitDx=0;exitDy=0;" parent="1" source="La3-25jKobvIbMl1DCS8-32" target="La3-25jKobvIbMl1DCS8-36" edge="1">
          <mxGeometry width="50" height="50" relative="1" as="geometry">
            <mxPoint x="-5.000000000000455" y="824.9999999999998" as="sourcePoint" />
            <mxPoint x="99.85447939615779" y="875.7744321365401" as="targetPoint" />
          </mxGeometry>
        </mxCell>
        <mxCell id="La3-25jKobvIbMl1DCS8-38" value="Latitud" style="ellipse;whiteSpace=wrap;html=1;" parent="1" vertex="1">
          <mxGeometry x="-35" y="260" width="100" height="40" as="geometry" />
        </mxCell>
        <mxCell id="La3-25jKobvIbMl1DCS8-39" value="Longitud" style="ellipse;whiteSpace=wrap;html=1;" parent="1" vertex="1">
          <mxGeometry x="85" y="220" width="100" height="40" as="geometry" />
        </mxCell>
        <mxCell id="La3-25jKobvIbMl1DCS8-40" value="" style="endArrow=none;html=1;rounded=0;entryX=0.5;entryY=1;entryDx=0;entryDy=0;exitX=0.397;exitY=-0.018;exitDx=0;exitDy=0;exitPerimeter=0;" parent="1" source="La3-25jKobvIbMl1DCS8-3" target="La3-25jKobvIbMl1DCS8-39" edge="1">
          <mxGeometry width="50" height="50" relative="1" as="geometry">
            <mxPoint x="234.99999999999955" y="399.9999999999998" as="sourcePoint" />
            <mxPoint x="359.8544793961437" y="344.22556786346536" as="targetPoint" />
          </mxGeometry>
        </mxCell>
        <mxCell id="La3-25jKobvIbMl1DCS8-41" value="" style="endArrow=none;html=1;rounded=0;entryX=1;entryY=1;entryDx=0;entryDy=0;" parent="1" source="La3-25jKobvIbMl1DCS8-3" target="La3-25jKobvIbMl1DCS8-38" edge="1">
          <mxGeometry width="50" height="50" relative="1" as="geometry">
            <mxPoint x="244.99999999999955" y="409.9999999999998" as="sourcePoint" />
            <mxPoint x="369.8544793961437" y="354.22556786346536" as="targetPoint" />
          </mxGeometry>
        </mxCell>
        <mxCell id="La3-25jKobvIbMl1DCS8-42" value="Registra" style="rhombus;whiteSpace=wrap;html=1;" parent="1" vertex="1">
          <mxGeometry x="10" y="535" width="120" height="60" as="geometry" />
        </mxCell>
        <mxCell id="La3-25jKobvIbMl1DCS8-43" style="rounded=0;orthogonalLoop=1;jettySize=auto;html=1;exitX=0.5;exitY=1;exitDx=0;exitDy=0;endArrow=none;endFill=0;" parent="1" source="La3-25jKobvIbMl1DCS8-42" target="La3-25jKobvIbMl1DCS8-32" edge="1">
          <mxGeometry relative="1" as="geometry">
            <mxPoint x="224.57999999999998" y="569.9999999999999" as="sourcePoint" />
            <mxPoint x="224.57999999999998" y="630" as="targetPoint" />
          </mxGeometry>
        </mxCell>
        <mxCell id="La3-25jKobvIbMl1DCS8-44" value="0..1" style="edgeLabel;html=1;align=center;verticalAlign=middle;resizable=0;points=[];" parent="La3-25jKobvIbMl1DCS8-43" vertex="1" connectable="0">
          <mxGeometry x="-0.2666" relative="1" as="geometry">
            <mxPoint as="offset" />
          </mxGeometry>
        </mxCell>
        <mxCell id="La3-25jKobvIbMl1DCS8-45" value="&lt;u&gt;Fecha_registro&lt;/u&gt;" style="ellipse;whiteSpace=wrap;html=1;" parent="1" vertex="1">
          <mxGeometry x="-270" y="700" width="100" height="40" as="geometry" />
        </mxCell>
        <mxCell id="La3-25jKobvIbMl1DCS8-46" value="" style="endArrow=none;html=1;rounded=0;entryX=1;entryY=0.5;entryDx=0;entryDy=0;exitX=0;exitY=0.5;exitDx=0;exitDy=0;" parent="1" source="La3-25jKobvIbMl1DCS8-32" target="La3-25jKobvIbMl1DCS8-45" edge="1">
          <mxGeometry width="50" height="50" relative="1" as="geometry">
            <mxPoint x="235" y="399.9999999999999" as="sourcePoint" />
            <mxPoint x="322.57359312880726" y="314.1421356237312" as="targetPoint" />
          </mxGeometry>
        </mxCell>
        <mxCell id="La3-25jKobvIbMl1DCS8-54" value="Semana" style="ellipse;whiteSpace=wrap;html=1;" parent="1" vertex="1">
          <mxGeometry x="1590" y="80" width="100" height="40" as="geometry" />
        </mxCell>
        <mxCell id="La3-25jKobvIbMl1DCS8-55" value="" style="endArrow=none;html=1;rounded=0;entryX=0;entryY=0.5;entryDx=0;entryDy=0;exitX=1;exitY=0.5;exitDx=0;exitDy=0;" parent="1" source="La3-25jKobvIbMl1DCS8-120" target="La3-25jKobvIbMl1DCS8-54" edge="1">
          <mxGeometry width="50" height="50" relative="1" as="geometry">
            <mxPoint x="1310" y="260" as="sourcePoint" />
            <mxPoint x="1250" y="320" as="targetPoint" />
          </mxGeometry>
        </mxCell>
        <mxCell id="La3-25jKobvIbMl1DCS8-56" value="Grupo_edad" style="ellipse;whiteSpace=wrap;html=1;" parent="1" vertex="1">
          <mxGeometry x="1220" y="760" width="100" height="40" as="geometry" />
        </mxCell>
        <mxCell id="La3-25jKobvIbMl1DCS8-57" value="" style="endArrow=none;html=1;rounded=0;exitX=0;exitY=0.5;exitDx=0;exitDy=0;entryX=1;entryY=0.5;entryDx=0;entryDy=0;" parent="1" source="La3-25jKobvIbMl1DCS8-56" target="La3-25jKobvIbMl1DCS8-78" edge="1">
          <mxGeometry width="50" height="50" relative="1" as="geometry">
            <mxPoint x="1515" y="430" as="sourcePoint" />
            <mxPoint x="1280" y="600" as="targetPoint" />
          </mxGeometry>
        </mxCell>
        <mxCell id="La3-25jKobvIbMl1DCS8-58" value="Pertenece" style="rhombus;whiteSpace=wrap;html=1;" parent="1" vertex="1">
          <mxGeometry x="350" y="490" width="120" height="60" as="geometry" />
        </mxCell>
        <mxCell id="La3-25jKobvIbMl1DCS8-59" value="" style="endArrow=none;html=1;rounded=0;strokeColor=default;exitX=0.5;exitY=0;exitDx=0;exitDy=0;entryX=0.5;entryY=1;entryDx=0;entryDy=0;" parent="1" source="La3-25jKobvIbMl1DCS8-33" target="La3-25jKobvIbMl1DCS8-58" edge="1">
          <mxGeometry width="50" height="50" relative="1" as="geometry">
            <mxPoint x="232.5" y="520" as="sourcePoint" />
            <mxPoint x="292.49999999999955" y="519.9999999999998" as="targetPoint" />
          </mxGeometry>
        </mxCell>
        <mxCell id="La3-25jKobvIbMl1DCS8-60" value="1..1" style="edgeLabel;html=1;align=center;verticalAlign=middle;resizable=0;points=[];" parent="La3-25jKobvIbMl1DCS8-59" vertex="1" connectable="0">
          <mxGeometry x="-0.2" relative="1" as="geometry">
            <mxPoint x="6" as="offset" />
          </mxGeometry>
        </mxCell>
        <mxCell id="La3-25jKobvIbMl1DCS8-61" value="" style="endArrow=none;html=1;rounded=0;strokeColor=default;exitX=0.5;exitY=0;exitDx=0;exitDy=0;entryX=1;entryY=1;entryDx=0;entryDy=0;" parent="1" source="La3-25jKobvIbMl1DCS8-58" target="La3-25jKobvIbMl1DCS8-3" edge="1">
          <mxGeometry width="50" height="50" relative="1" as="geometry">
            <mxPoint x="617.5" y="519.5" as="sourcePoint" />
            <mxPoint x="677.5" y="520" as="targetPoint" />
          </mxGeometry>
        </mxCell>
        <mxCell id="La3-25jKobvIbMl1DCS8-62" value="1..N" style="edgeLabel;html=1;align=center;verticalAlign=middle;resizable=0;points=[];" parent="La3-25jKobvIbMl1DCS8-61" vertex="1" connectable="0">
          <mxGeometry x="0.2145" y="-1" relative="1" as="geometry">
            <mxPoint x="-13" y="-1" as="offset" />
          </mxGeometry>
        </mxCell>
        <mxCell id="La3-25jKobvIbMl1DCS8-67" value="" style="endArrow=none;html=1;rounded=0;entryX=0.5;entryY=0;entryDx=0;entryDy=0;" parent="1" source="La3-25jKobvIbMl1DCS8-105" target="La3-25jKobvIbMl1DCS8-106" edge="1">
          <mxGeometry width="50" height="50" relative="1" as="geometry">
            <mxPoint x="144.99999999999955" y="940" as="sourcePoint" />
            <mxPoint x="334.99999999999955" y="940" as="targetPoint" />
          </mxGeometry>
        </mxCell>
        <mxCell id="La3-25jKobvIbMl1DCS8-68" style="rounded=0;orthogonalLoop=1;jettySize=auto;html=1;exitX=0.5;exitY=1;exitDx=0;exitDy=0;entryX=1;entryY=0;entryDx=0;entryDy=0;endArrow=none;endFill=0;" parent="1" target="La3-25jKobvIbMl1DCS8-70" edge="1">
          <mxGeometry relative="1" as="geometry">
            <mxPoint x="225" y="450" as="sourcePoint" />
          </mxGeometry>
        </mxCell>
        <mxCell id="La3-25jKobvIbMl1DCS8-69" value="0..N" style="edgeLabel;html=1;align=center;verticalAlign=middle;resizable=0;points=[];" parent="La3-25jKobvIbMl1DCS8-68" vertex="1" connectable="0">
          <mxGeometry x="-0.6" y="-2" relative="1" as="geometry">
            <mxPoint x="2" y="8" as="offset" />
          </mxGeometry>
        </mxCell>
        <mxCell id="La3-25jKobvIbMl1DCS8-70" value="Registra" style="rhombus;whiteSpace=wrap;html=1;" parent="1" vertex="1">
          <mxGeometry x="10" y="535" width="120" height="60" as="geometry" />
        </mxCell>
        <mxCell id="La3-25jKobvIbMl1DCS8-73" value="&lt;u&gt;Fecha_registro&lt;/u&gt;" style="ellipse;whiteSpace=wrap;html=1;" parent="1" vertex="1">
          <mxGeometry x="220" y="960" width="100" height="40" as="geometry" />
        </mxCell>
        <mxCell id="La3-25jKobvIbMl1DCS8-74" value="" style="endArrow=none;html=1;rounded=0;entryX=0.5;entryY=0;entryDx=0;entryDy=0;exitX=0.5;exitY=1;exitDx=0;exitDy=0;" parent="1" source="La3-25jKobvIbMl1DCS8-105" target="La3-25jKobvIbMl1DCS8-73" edge="1">
          <mxGeometry width="50" height="50" relative="1" as="geometry">
            <mxPoint x="114.99999999999955" y="940" as="sourcePoint" />
            <mxPoint x="952.5735931288073" y="544.1421356237312" as="targetPoint" />
          </mxGeometry>
        </mxCell>
        <mxCell id="La3-25jKobvIbMl1DCS8-75" style="rounded=0;orthogonalLoop=1;jettySize=auto;html=1;exitX=0.5;exitY=1;exitDx=0;exitDy=0;entryX=0.5;entryY=0;entryDx=0;entryDy=0;endArrow=none;endFill=0;" parent="1" source="La3-25jKobvIbMl1DCS8-33" target="La3-25jKobvIbMl1DCS8-77" edge="1">
          <mxGeometry relative="1" as="geometry">
            <mxPoint x="855" y="680" as="sourcePoint" />
          </mxGeometry>
        </mxCell>
        <mxCell id="La3-25jKobvIbMl1DCS8-76" value="0..N" style="edgeLabel;html=1;align=center;verticalAlign=middle;resizable=0;points=[];" parent="La3-25jKobvIbMl1DCS8-75" vertex="1" connectable="0">
          <mxGeometry x="-0.6" y="-2" relative="1" as="geometry">
            <mxPoint x="2" y="8" as="offset" />
          </mxGeometry>
        </mxCell>
        <mxCell id="La3-25jKobvIbMl1DCS8-77" value="Registra" style="rhombus;whiteSpace=wrap;html=1;" parent="1" vertex="1">
          <mxGeometry x="350" y="710" width="120" height="60" as="geometry" />
        </mxCell>
        <mxCell id="La3-25jKobvIbMl1DCS8-78" value="Anotacion_Anual" style="rounded=0;whiteSpace=wrap;html=1;" parent="1" vertex="1">
          <mxGeometry x="960" y="620" width="120" height="60" as="geometry" />
        </mxCell>
        <mxCell id="La3-25jKobvIbMl1DCS8-79" value="Tipo_dato" style="ellipse;whiteSpace=wrap;html=1;" parent="1" vertex="1">
          <mxGeometry x="970" y="750" width="100" height="40" as="geometry" />
        </mxCell>
        <mxCell id="La3-25jKobvIbMl1DCS8-80" value="Cantidad" style="ellipse;whiteSpace=wrap;html=1;" parent="1" vertex="1">
          <mxGeometry x="830" y="720" width="100" height="40" as="geometry" />
        </mxCell>
        <mxCell id="La3-25jKobvIbMl1DCS8-81" value="" style="endArrow=none;html=1;rounded=0;entryX=0.5;entryY=0;entryDx=0;entryDy=0;exitX=0.25;exitY=1;exitDx=0;exitDy=0;" parent="1" source="La3-25jKobvIbMl1DCS8-78" target="La3-25jKobvIbMl1DCS8-80" edge="1">
          <mxGeometry width="50" height="50" relative="1" as="geometry">
            <mxPoint x="840" y="670" as="sourcePoint" />
            <mxPoint x="880" y="730" as="targetPoint" />
          </mxGeometry>
        </mxCell>
        <mxCell id="La3-25jKobvIbMl1DCS8-82" value="" style="endArrow=none;html=1;rounded=0;entryX=0.5;entryY=0;entryDx=0;entryDy=0;exitX=0.75;exitY=1;exitDx=0;exitDy=0;" parent="1" source="La3-25jKobvIbMl1DCS8-78" target="La3-25jKobvIbMl1DCS8-79" edge="1">
          <mxGeometry width="50" height="50" relative="1" as="geometry">
            <mxPoint x="780" y="670" as="sourcePoint" />
            <mxPoint x="730" y="730" as="targetPoint" />
          </mxGeometry>
        </mxCell>
        <mxCell id="La3-25jKobvIbMl1DCS8-83" value="Sexo" style="ellipse;whiteSpace=wrap;html=1;" parent="1" vertex="1">
          <mxGeometry x="1090" y="760" width="100" height="40" as="geometry" />
        </mxCell>
        <mxCell id="La3-25jKobvIbMl1DCS8-84" value="" style="endArrow=none;html=1;rounded=0;entryX=1;entryY=0.75;entryDx=0;entryDy=0;exitX=0.5;exitY=0;exitDx=0;exitDy=0;" parent="1" source="La3-25jKobvIbMl1DCS8-83" target="La3-25jKobvIbMl1DCS8-78" edge="1">
          <mxGeometry width="50" height="50" relative="1" as="geometry">
            <mxPoint x="870" y="680" as="sourcePoint" />
            <mxPoint x="1220" y="665" as="targetPoint" />
          </mxGeometry>
        </mxCell>
        <mxCell id="La3-25jKobvIbMl1DCS8-88" value="" style="endArrow=none;html=1;rounded=0;entryX=1;entryY=0.5;entryDx=0;entryDy=0;exitX=0;exitY=0.5;exitDx=0;exitDy=0;" parent="1" source="La3-25jKobvIbMl1DCS8-120" edge="1">
          <mxGeometry width="50" height="50" relative="1" as="geometry">
            <mxPoint x="1320" y="270" as="sourcePoint" />
            <mxPoint x="1105" y="320" as="targetPoint" />
          </mxGeometry>
        </mxCell>
        <mxCell id="La3-25jKobvIbMl1DCS8-89" value="0..1" style="edgeLabel;html=1;align=center;verticalAlign=middle;resizable=0;points=[];" parent="La3-25jKobvIbMl1DCS8-88" vertex="1" connectable="0">
          <mxGeometry x="0.1021" y="-2" relative="1" as="geometry">
            <mxPoint as="offset" />
          </mxGeometry>
        </mxCell>
        <mxCell id="La3-25jKobvIbMl1DCS8-90" value="AÃ±o" style="ellipse;whiteSpace=wrap;html=1;" parent="1" vertex="1">
          <mxGeometry x="740" y="630" width="100" height="40" as="geometry" />
        </mxCell>
        <mxCell id="La3-25jKobvIbMl1DCS8-91" value="" style="endArrow=none;html=1;rounded=0;entryX=1;entryY=0.5;entryDx=0;entryDy=0;exitX=0;exitY=0.75;exitDx=0;exitDy=0;" parent="1" source="La3-25jKobvIbMl1DCS8-78" target="La3-25jKobvIbMl1DCS8-90" edge="1">
          <mxGeometry width="50" height="50" relative="1" as="geometry">
            <mxPoint x="1240" y="565" as="sourcePoint" />
            <mxPoint x="1180" y="625" as="targetPoint" />
          </mxGeometry>
        </mxCell>
        <mxCell id="La3-25jKobvIbMl1DCS8-92" value="Almacena" style="rhombus;whiteSpace=wrap;html=1;" parent="1" vertex="1">
          <mxGeometry x="960" y="420" width="120" height="60" as="geometry" />
        </mxCell>
        <mxCell id="La3-25jKobvIbMl1DCS8-93" value="" style="endArrow=none;html=1;rounded=0;entryX=0;entryY=0;entryDx=0;entryDy=0;exitX=1;exitY=0.75;exitDx=0;exitDy=0;" parent="1" source="La3-25jKobvIbMl1DCS8-5" target="La3-25jKobvIbMl1DCS8-92" edge="1">
          <mxGeometry width="50" height="50" relative="1" as="geometry">
            <mxPoint x="780" y="710" as="sourcePoint" />
            <mxPoint x="1430" y="625" as="targetPoint" />
          </mxGeometry>
        </mxCell>
        <mxCell id="La3-25jKobvIbMl1DCS8-94" value="0..N" style="edgeLabel;html=1;align=center;verticalAlign=middle;resizable=0;points=[];" parent="La3-25jKobvIbMl1DCS8-93" vertex="1" connectable="0">
          <mxGeometry x="-0.3394" y="-2" relative="1" as="geometry">
            <mxPoint as="offset" />
          </mxGeometry>
        </mxCell>
        <mxCell id="La3-25jKobvIbMl1DCS8-95" value="" style="endArrow=none;html=1;rounded=0;entryX=0.5;entryY=1;entryDx=0;entryDy=0;exitX=0.5;exitY=0;exitDx=0;exitDy=0;" parent="1" source="La3-25jKobvIbMl1DCS8-78" target="La3-25jKobvIbMl1DCS8-92" edge="1">
          <mxGeometry width="50" height="50" relative="1" as="geometry">
            <mxPoint x="1140" y="525" as="sourcePoint" />
            <mxPoint x="1440" y="635" as="targetPoint" />
          </mxGeometry>
        </mxCell>
        <mxCell id="La3-25jKobvIbMl1DCS8-96" value="0..1" style="edgeLabel;html=1;align=center;verticalAlign=middle;resizable=0;points=[];" parent="La3-25jKobvIbMl1DCS8-95" vertex="1" connectable="0">
          <mxGeometry x="-0.2078" relative="1" as="geometry">
            <mxPoint as="offset" />
          </mxGeometry>
        </mxCell>
        <mxCell id="La3-25jKobvIbMl1DCS8-97" value="&lt;u&gt;Fecha&lt;/u&gt;" style="ellipse;whiteSpace=wrap;html=1;" parent="1" vertex="1">
          <mxGeometry x="-460" y="240" width="100" height="40" as="geometry" />
        </mxCell>
        <mxCell id="La3-25jKobvIbMl1DCS8-98" value="" style="endArrow=none;html=1;rounded=0;exitX=0.5;exitY=0;exitDx=0;exitDy=0;" parent="1" source="La3-25jKobvIbMl1DCS8-18" target="La3-25jKobvIbMl1DCS8-97" edge="1">
          <mxGeometry width="50" height="50" relative="1" as="geometry">
            <mxPoint x="-80" y="245" as="sourcePoint" />
            <mxPoint x="232.57359312880726" y="-5.857864376268822" as="targetPoint" />
          </mxGeometry>
        </mxCell>
        <mxCell id="La3-25jKobvIbMl1DCS8-105" value="AnotaciÃ³n_Municipio" style="rounded=0;whiteSpace=wrap;html=1;" parent="1" vertex="1">
          <mxGeometry x="350" y="810" width="120" height="60" as="geometry" />
        </mxCell>
        <mxCell id="La3-25jKobvIbMl1DCS8-106" value="Cantidad" style="ellipse;whiteSpace=wrap;html=1;" parent="1" vertex="1">
          <mxGeometry x="360" y="970" width="100" height="40" as="geometry" />
        </mxCell>
        <mxCell id="La3-25jKobvIbMl1DCS8-113" style="rounded=0;orthogonalLoop=1;jettySize=auto;html=1;exitX=0.5;exitY=1;exitDx=0;exitDy=0;endArrow=none;endFill=0;entryX=0.5;entryY=0;entryDx=0;entryDy=0;" parent="1" source="La3-25jKobvIbMl1DCS8-77" target="La3-25jKobvIbMl1DCS8-105" edge="1">
          <mxGeometry relative="1" as="geometry">
            <mxPoint x="449.99999999999955" y="810" as="sourcePoint" />
            <mxPoint x="284.99999999999955" y="920" as="targetPoint" />
          </mxGeometry>
        </mxCell>
        <mxCell id="La3-25jKobvIbMl1DCS8-114" value="0..1" style="edgeLabel;html=1;align=center;verticalAlign=middle;resizable=0;points=[];" parent="La3-25jKobvIbMl1DCS8-113" vertex="1" connectable="0">
          <mxGeometry x="-0.2666" relative="1" as="geometry">
            <mxPoint as="offset" />
          </mxGeometry>
        </mxCell>
        <mxCell id="La3-25jKobvIbMl1DCS8-120" value="Hospitalizado" style="rounded=0;whiteSpace=wrap;html=1;" parent="1" vertex="1">
          <mxGeometry x="1310" y="130" width="120" height="60" as="geometry" />
        </mxCell>
        <mxCell id="La3-25jKobvIbMl1DCS8-121" value="Confirmado PDIA" style="rounded=0;whiteSpace=wrap;html=1;" parent="1" vertex="1">
          <mxGeometry x="1310" y="260" width="120" height="60" as="geometry" />
        </mxCell>
        <mxCell id="La3-25jKobvIbMl1DCS8-122" value="UCI" style="rounded=0;whiteSpace=wrap;html=1;" parent="1" vertex="1">
          <mxGeometry x="1310" y="520" width="120" height="60" as="geometry" />
        </mxCell>
        <mxCell id="La3-25jKobvIbMl1DCS8-123" value="Confirmado" style="rounded=0;whiteSpace=wrap;html=1;" parent="1" vertex="1">
          <mxGeometry x="1310" y="390" width="120" height="60" as="geometry" />
        </mxCell>
        <mxCell id="La3-25jKobvIbMl1DCS8-124" value="Fallecido" style="rounded=0;whiteSpace=wrap;html=1;" parent="1" vertex="1">
          <mxGeometry x="1320" y="640" width="120" height="60" as="geometry" />
        </mxCell>
        <mxCell id="La3-25jKobvIbMl1DCS8-125" value="Sexo" style="ellipse;whiteSpace=wrap;html=1;" parent="1" vertex="1">
          <mxGeometry x="1590" y="130" width="100" height="40" as="geometry" />
        </mxCell>
        <mxCell id="La3-25jKobvIbMl1DCS8-126" value="" style="endArrow=none;html=1;rounded=0;entryX=1;entryY=0.5;entryDx=0;entryDy=0;exitX=0;exitY=0.5;exitDx=0;exitDy=0;" parent="1" source="La3-25jKobvIbMl1DCS8-125" target="La3-25jKobvIbMl1DCS8-120" edge="1">
          <mxGeometry width="50" height="50" relative="1" as="geometry">
            <mxPoint x="1350" y="402.5" as="sourcePoint" />
            <mxPoint x="1720" y="317.5" as="targetPoint" />
          </mxGeometry>
        </mxCell>
        <mxCell id="La3-25jKobvIbMl1DCS8-127" value="Cantidad" style="ellipse;whiteSpace=wrap;html=1;" parent="1" vertex="1">
          <mxGeometry x="1570" y="20" width="100" height="40" as="geometry" />
        </mxCell>
        <mxCell id="La3-25jKobvIbMl1DCS8-128" value="" style="endArrow=none;html=1;rounded=0;entryX=0;entryY=1;entryDx=0;entryDy=0;exitX=1;exitY=0.5;exitDx=0;exitDy=0;" parent="1" source="La3-25jKobvIbMl1DCS8-120" target="La3-25jKobvIbMl1DCS8-127" edge="1">
          <mxGeometry width="50" height="50" relative="1" as="geometry">
            <mxPoint x="960" y="200" as="sourcePoint" />
            <mxPoint x="600" y="305" as="targetPoint" />
          </mxGeometry>
        </mxCell>
        <mxCell id="La3-25jKobvIbMl1DCS8-129" value="" style="endArrow=none;html=1;rounded=0;entryX=1;entryY=0.5;entryDx=0;entryDy=0;exitX=0;exitY=0.5;exitDx=0;exitDy=0;" parent="1" source="La3-25jKobvIbMl1DCS8-121" edge="1">
          <mxGeometry width="50" height="50" relative="1" as="geometry">
            <mxPoint x="1340" y="100" as="sourcePoint" />
            <mxPoint x="1105" y="320" as="targetPoint" />
          </mxGeometry>
        </mxCell>
        <mxCell id="La3-25jKobvIbMl1DCS8-130" value="0..1" style="edgeLabel;html=1;align=center;verticalAlign=middle;resizable=0;points=[];" parent="La3-25jKobvIbMl1DCS8-129" vertex="1" connectable="0">
          <mxGeometry x="0.1021" y="-2" relative="1" as="geometry">
            <mxPoint as="offset" />
          </mxGeometry>
        </mxCell>
        <mxCell id="La3-25jKobvIbMl1DCS8-131" value="" style="endArrow=none;html=1;rounded=0;entryX=1;entryY=0.5;entryDx=0;entryDy=0;exitX=0;exitY=0.5;exitDx=0;exitDy=0;" parent="1" source="La3-25jKobvIbMl1DCS8-123" edge="1">
          <mxGeometry width="50" height="50" relative="1" as="geometry">
            <mxPoint x="1350" y="110" as="sourcePoint" />
            <mxPoint x="1105" y="320" as="targetPoint" />
          </mxGeometry>
        </mxCell>
        <mxCell id="La3-25jKobvIbMl1DCS8-132" value="0..1" style="edgeLabel;html=1;align=center;verticalAlign=middle;resizable=0;points=[];" parent="La3-25jKobvIbMl1DCS8-131" vertex="1" connectable="0">
          <mxGeometry x="0.1021" y="-2" relative="1" as="geometry">
            <mxPoint as="offset" />
          </mxGeometry>
        </mxCell>
        <mxCell id="La3-25jKobvIbMl1DCS8-133" value="" style="endArrow=none;html=1;rounded=0;entryX=1;entryY=0.5;entryDx=0;entryDy=0;exitX=0;exitY=0.5;exitDx=0;exitDy=0;" parent="1" source="La3-25jKobvIbMl1DCS8-122" edge="1">
          <mxGeometry width="50" height="50" relative="1" as="geometry">
            <mxPoint x="1360" y="120" as="sourcePoint" />
            <mxPoint x="1105" y="320" as="targetPoint" />
          </mxGeometry>
        </mxCell>
        <mxCell id="La3-25jKobvIbMl1DCS8-134" value="0..1" style="edgeLabel;html=1;align=center;verticalAlign=middle;resizable=0;points=[];" parent="La3-25jKobvIbMl1DCS8-133" vertex="1" connectable="0">
          <mxGeometry x="0.1021" y="-2" relative="1" as="geometry">
            <mxPoint as="offset" />
          </mxGeometry>
        </mxCell>
        <mxCell id="La3-25jKobvIbMl1DCS8-135" value="" style="endArrow=none;html=1;rounded=0;entryX=1;entryY=0.5;entryDx=0;entryDy=0;exitX=0;exitY=0.5;exitDx=0;exitDy=0;" parent="1" source="La3-25jKobvIbMl1DCS8-124" edge="1">
          <mxGeometry width="50" height="50" relative="1" as="geometry">
            <mxPoint x="1370" y="130" as="sourcePoint" />
            <mxPoint x="1105" y="320" as="targetPoint" />
          </mxGeometry>
        </mxCell>
        <mxCell id="La3-25jKobvIbMl1DCS8-136" value="0..1" style="edgeLabel;html=1;align=center;verticalAlign=middle;resizable=0;points=[];" parent="La3-25jKobvIbMl1DCS8-135" vertex="1" connectable="0">
          <mxGeometry x="0.1021" y="-2" relative="1" as="geometry">
            <mxPoint as="offset" />
          </mxGeometry>
        </mxCell>
        <mxCell id="La3-25jKobvIbMl1DCS8-137" value="Sexo" style="ellipse;whiteSpace=wrap;html=1;" parent="1" vertex="1">
          <mxGeometry x="1580" y="290" width="100" height="40" as="geometry" />
        </mxCell>
        <mxCell id="La3-25jKobvIbMl1DCS8-138" value="" style="endArrow=none;html=1;rounded=0;entryX=1;entryY=0.5;entryDx=0;entryDy=0;exitX=0;exitY=0.5;exitDx=0;exitDy=0;" parent="1" source="La3-25jKobvIbMl1DCS8-137" target="La3-25jKobvIbMl1DCS8-121" edge="1">
          <mxGeometry width="50" height="50" relative="1" as="geometry">
            <mxPoint x="1350" y="472.5" as="sourcePoint" />
            <mxPoint x="1440" y="230" as="targetPoint" />
          </mxGeometry>
        </mxCell>
        <mxCell id="La3-25jKobvIbMl1DCS8-139" value="Sexo" style="ellipse;whiteSpace=wrap;html=1;" parent="1" vertex="1">
          <mxGeometry x="1550" y="450" width="100" height="40" as="geometry" />
        </mxCell>
        <mxCell id="La3-25jKobvIbMl1DCS8-140" value="" style="endArrow=none;html=1;rounded=0;exitX=0;exitY=0.5;exitDx=0;exitDy=0;entryX=1;entryY=0.5;entryDx=0;entryDy=0;" parent="1" source="La3-25jKobvIbMl1DCS8-139" target="La3-25jKobvIbMl1DCS8-123" edge="1">
          <mxGeometry width="50" height="50" relative="1" as="geometry">
            <mxPoint x="1350" y="542.5" as="sourcePoint" />
            <mxPoint x="1490" y="300" as="targetPoint" />
          </mxGeometry>
        </mxCell>
        <mxCell id="La3-25jKobvIbMl1DCS8-141" value="Sexo" style="ellipse;whiteSpace=wrap;html=1;" parent="1" vertex="1">
          <mxGeometry x="1580" y="630" width="100" height="40" as="geometry" />
        </mxCell>
        <mxCell id="La3-25jKobvIbMl1DCS8-142" value="" style="endArrow=none;html=1;rounded=0;exitX=0;exitY=0.5;exitDx=0;exitDy=0;entryX=1;entryY=0.5;entryDx=0;entryDy=0;" parent="1" source="La3-25jKobvIbMl1DCS8-141" target="La3-25jKobvIbMl1DCS8-122" edge="1">
          <mxGeometry width="50" height="50" relative="1" as="geometry">
            <mxPoint x="1340" y="612.5" as="sourcePoint" />
            <mxPoint x="1480" y="360" as="targetPoint" />
          </mxGeometry>
        </mxCell>
        <mxCell id="La3-25jKobvIbMl1DCS8-143" value="Sexo" style="ellipse;whiteSpace=wrap;html=1;" parent="1" vertex="1">
          <mxGeometry x="1540" y="800" width="100" height="40" as="geometry" />
        </mxCell>
        <mxCell id="La3-25jKobvIbMl1DCS8-144" value="" style="endArrow=none;html=1;rounded=0;exitX=0;exitY=0.5;exitDx=0;exitDy=0;entryX=1;entryY=0.5;entryDx=0;entryDy=0;" parent="1" source="La3-25jKobvIbMl1DCS8-143" target="La3-25jKobvIbMl1DCS8-124" edge="1">
          <mxGeometry width="50" height="50" relative="1" as="geometry">
            <mxPoint x="1340" y="682.5" as="sourcePoint" />
            <mxPoint x="1470" y="440" as="targetPoint" />
          </mxGeometry>
        </mxCell>
        <mxCell id="hGAfxoOGLagBNPNn_GTw-1" value="Semana" style="ellipse;whiteSpace=wrap;html=1;" parent="1" vertex="1">
          <mxGeometry x="1570" y="240" width="100" height="40" as="geometry" />
        </mxCell>
        <mxCell id="hGAfxoOGLagBNPNn_GTw-2" value="Cantidad" style="ellipse;whiteSpace=wrap;html=1;" parent="1" vertex="1">
          <mxGeometry x="1580" y="190" width="100" height="40" as="geometry" />
        </mxCell>
        <mxCell id="hGAfxoOGLagBNPNn_GTw-3" value="" style="endArrow=none;html=1;rounded=0;entryX=1;entryY=0.5;entryDx=0;entryDy=0;exitX=0;exitY=0.5;exitDx=0;exitDy=0;" parent="1" source="hGAfxoOGLagBNPNn_GTw-1" target="La3-25jKobvIbMl1DCS8-121" edge="1">
          <mxGeometry width="50" height="50" relative="1" as="geometry">
            <mxPoint x="1590" y="320" as="sourcePoint" />
            <mxPoint x="1460" y="260" as="targetPoint" />
          </mxGeometry>
        </mxCell>
        <mxCell id="hGAfxoOGLagBNPNn_GTw-4" value="" style="endArrow=none;html=1;rounded=0;entryX=1;entryY=0.5;entryDx=0;entryDy=0;exitX=0;exitY=0.5;exitDx=0;exitDy=0;" parent="1" source="hGAfxoOGLagBNPNn_GTw-2" target="La3-25jKobvIbMl1DCS8-121" edge="1">
          <mxGeometry width="50" height="50" relative="1" as="geometry">
            <mxPoint x="1600" y="330" as="sourcePoint" />
            <mxPoint x="1470" y="270" as="targetPoint" />
          </mxGeometry>
        </mxCell>
        <mxCell id="hGAfxoOGLagBNPNn_GTw-5" value="Semana" style="ellipse;whiteSpace=wrap;html=1;" parent="1" vertex="1">
          <mxGeometry x="1560" y="390" width="100" height="40" as="geometry" />
        </mxCell>
        <mxCell id="hGAfxoOGLagBNPNn_GTw-6" value="Cantidad" style="ellipse;whiteSpace=wrap;html=1;" parent="1" vertex="1">
          <mxGeometry x="1560" y="340" width="100" height="40" as="geometry" />
        </mxCell>
        <mxCell id="hGAfxoOGLagBNPNn_GTw-7" value="" style="endArrow=none;html=1;rounded=0;entryX=1;entryY=0.5;entryDx=0;entryDy=0;exitX=0;exitY=0.5;exitDx=0;exitDy=0;" parent="1" source="hGAfxoOGLagBNPNn_GTw-5" target="La3-25jKobvIbMl1DCS8-123" edge="1">
          <mxGeometry width="50" height="50" relative="1" as="geometry">
            <mxPoint x="1600" y="330" as="sourcePoint" />
            <mxPoint x="1460" y="260" as="targetPoint" />
          </mxGeometry>
        </mxCell>
        <mxCell id="hGAfxoOGLagBNPNn_GTw-8" value="" style="endArrow=none;html=1;rounded=0;entryX=1;entryY=0.5;entryDx=0;entryDy=0;exitX=0;exitY=0.5;exitDx=0;exitDy=0;" parent="1" source="hGAfxoOGLagBNPNn_GTw-6" target="La3-25jKobvIbMl1DCS8-123" edge="1">
          <mxGeometry width="50" height="50" relative="1" as="geometry">
            <mxPoint x="1610" y="340" as="sourcePoint" />
            <mxPoint x="1460" y="260" as="targetPoint" />
          </mxGeometry>
        </mxCell>
        <mxCell id="hGAfxoOGLagBNPNn_GTw-9" value="Semana" style="ellipse;whiteSpace=wrap;html=1;" parent="1" vertex="1">
          <mxGeometry x="1580" y="570" width="100" height="40" as="geometry" />
        </mxCell>
        <mxCell id="hGAfxoOGLagBNPNn_GTw-10" value="Cantidad" style="ellipse;whiteSpace=wrap;html=1;" parent="1" vertex="1">
          <mxGeometry x="1580" y="520" width="100" height="40" as="geometry" />
        </mxCell>
        <mxCell id="hGAfxoOGLagBNPNn_GTw-11" value="" style="endArrow=none;html=1;rounded=0;entryX=1;entryY=0.5;entryDx=0;entryDy=0;exitX=0;exitY=0.5;exitDx=0;exitDy=0;" parent="1" source="hGAfxoOGLagBNPNn_GTw-9" target="La3-25jKobvIbMl1DCS8-122" edge="1">
          <mxGeometry width="50" height="50" relative="1" as="geometry">
            <mxPoint x="1620" y="510" as="sourcePoint" />
            <mxPoint x="1450" y="600" as="targetPoint" />
          </mxGeometry>
        </mxCell>
        <mxCell id="hGAfxoOGLagBNPNn_GTw-12" value="" style="endArrow=none;html=1;rounded=0;entryX=1;entryY=0.25;entryDx=0;entryDy=0;exitX=0;exitY=0.5;exitDx=0;exitDy=0;" parent="1" source="hGAfxoOGLagBNPNn_GTw-10" target="La3-25jKobvIbMl1DCS8-122" edge="1">
          <mxGeometry width="50" height="50" relative="1" as="geometry">
            <mxPoint x="1630" y="520" as="sourcePoint" />
            <mxPoint x="1450" y="600" as="targetPoint" />
          </mxGeometry>
        </mxCell>
        <mxCell id="hGAfxoOGLagBNPNn_GTw-13" value="Semana" style="ellipse;whiteSpace=wrap;html=1;" parent="1" vertex="1">
          <mxGeometry x="1550" y="730" width="100" height="40" as="geometry" />
        </mxCell>
        <mxCell id="hGAfxoOGLagBNPNn_GTw-14" value="Cantidad" style="ellipse;whiteSpace=wrap;html=1;" parent="1" vertex="1">
          <mxGeometry x="1550" y="680" width="100" height="40" as="geometry" />
        </mxCell>
        <mxCell id="hGAfxoOGLagBNPNn_GTw-15" value="" style="endArrow=none;html=1;rounded=0;entryX=1;entryY=0.5;entryDx=0;entryDy=0;exitX=0;exitY=0.5;exitDx=0;exitDy=0;" parent="1" source="hGAfxoOGLagBNPNn_GTw-13" target="La3-25jKobvIbMl1DCS8-124" edge="1">
          <mxGeometry width="50" height="50" relative="1" as="geometry">
            <mxPoint x="1870" y="750" as="sourcePoint" />
            <mxPoint x="1700" y="840" as="targetPoint" />
          </mxGeometry>
        </mxCell>
        <mxCell id="hGAfxoOGLagBNPNn_GTw-16" value="" style="endArrow=none;html=1;rounded=0;entryX=1;entryY=0.5;entryDx=0;entryDy=0;exitX=0;exitY=0.5;exitDx=0;exitDy=0;" parent="1" source="hGAfxoOGLagBNPNn_GTw-14" target="La3-25jKobvIbMl1DCS8-124" edge="1">
          <mxGeometry width="50" height="50" relative="1" as="geometry">
            <mxPoint x="1880" y="760" as="sourcePoint" />
            <mxPoint x="1700" y="840" as="targetPoint" />
          </mxGeometry>
        </mxCell>
        <mxCell id="hGAfxoOGLagBNPNn_GTw-37" value="&lt;u&gt;COD_POSTAL&lt;/u&gt;" style="ellipse;whiteSpace=wrap;html=1;" parent="1" vertex="1">
          <mxGeometry x="550" y="550" width="120" height="40" as="geometry" />
        </mxCell>
        <mxCell id="hGAfxoOGLagBNPNn_GTw-38" value="" style="endArrow=none;html=1;rounded=0;entryX=0;entryY=1;entryDx=0;entryDy=0;exitX=1;exitY=0.5;exitDx=0;exitDy=0;" parent="1" source="La3-25jKobvIbMl1DCS8-33" target="hGAfxoOGLagBNPNn_GTw-37" edge="1">
          <mxGeometry width="50" height="50" relative="1" as="geometry">
            <mxPoint x="509.99999999999955" y="669.9999999999998" as="sourcePoint" />
            <mxPoint x="740" y="760" as="targetPoint" />
          </mxGeometry>
        </mxCell>
        <mxCell id="vOfl9ptYlDWNYr21zags-2" value="MUNICIPIO" style="ellipse;whiteSpace=wrap;html=1;" vertex="1" parent="1">
          <mxGeometry x="570" y="630" width="120" height="40" as="geometry" />
        </mxCell>
        <mxCell id="vOfl9ptYlDWNYr21zags-3" value="" style="endArrow=none;html=1;rounded=0;entryX=0;entryY=0.5;entryDx=0;entryDy=0;exitX=1;exitY=0.5;exitDx=0;exitDy=0;" edge="1" parent="1" target="vOfl9ptYlDWNYr21zags-2" source="La3-25jKobvIbMl1DCS8-33">
          <mxGeometry width="50" height="50" relative="1" as="geometry">
            <mxPoint x="459.99999999999955" y="739.9999999999998" as="sourcePoint" />
            <mxPoint x="730" y="880" as="targetPoint" />
          </mxGeometry>
        </mxCell>
        <mxCell id="vOfl9ptYlDWNYr21zags-5" value="&lt;u&gt;Tipo_dato&lt;/u&gt;" style="ellipse;whiteSpace=wrap;html=1;" vertex="1" parent="1">
          <mxGeometry x="520" y="970" width="100" height="40" as="geometry" />
        </mxCell>
        <mxCell id="vOfl9ptYlDWNYr21zags-6" value="" style="endArrow=none;html=1;rounded=0;entryX=0.5;entryY=0;entryDx=0;entryDy=0;exitX=0.5;exitY=1;exitDx=0;exitDy=0;" edge="1" parent="1" source="La3-25jKobvIbMl1DCS8-105" target="vOfl9ptYlDWNYr21zags-5">
          <mxGeometry width="50" height="50" relative="1" as="geometry">
            <mxPoint x="29.999999999999545" y="720" as="sourcePoint" />
            <mxPoint x="44.999999999999545" y="790" as="targetPoint" />
          </mxGeometry>
        </mxCell>
        <mxCell id="vOfl9ptYlDWNYr21zags-7" value="Usuario" style="rounded=0;whiteSpace=wrap;html=1;" vertex="1" parent="1">
          <mxGeometry x="70" y="-90" width="120" height="60" as="geometry" />
        </mxCell>
        <mxCell id="vOfl9ptYlDWNYr21zags-8" value="&lt;u&gt;DNI&lt;/u&gt;" style="ellipse;whiteSpace=wrap;html=1;" vertex="1" parent="1">
          <mxGeometry x="-60" y="-190" width="100" height="40" as="geometry" />
        </mxCell>
        <mxCell id="vOfl9ptYlDWNYr21zags-9" value="" style="endArrow=none;html=1;rounded=0;strokeColor=default;entryX=0.25;entryY=0;entryDx=0;entryDy=0;exitX=1;exitY=1;exitDx=0;exitDy=0;" edge="1" parent="1" source="vOfl9ptYlDWNYr21zags-8" target="vOfl9ptYlDWNYr21zags-7">
          <mxGeometry width="50" height="50" relative="1" as="geometry">
            <mxPoint x="-210" y="10" as="sourcePoint" />
            <mxPoint x="-160" y="-40" as="targetPoint" />
          </mxGeometry>
        </mxCell>
        <mxCell id="vOfl9ptYlDWNYr21zags-10" value="Fecha Nacimiento" style="ellipse;whiteSpace=wrap;html=1;" vertex="1" parent="1">
          <mxGeometry x="-160" y="-80" width="120" height="40" as="geometry" />
        </mxCell>
        <mxCell id="vOfl9ptYlDWNYr21zags-11" value="" style="endArrow=none;html=1;rounded=0;strokeColor=default;entryX=0;entryY=0.5;entryDx=0;entryDy=0;exitX=1;exitY=0.5;exitDx=0;exitDy=0;" edge="1" parent="1" source="vOfl9ptYlDWNYr21zags-10" target="vOfl9ptYlDWNYr21zags-7">
          <mxGeometry width="50" height="50" relative="1" as="geometry">
            <mxPoint x="-60" y="30" as="sourcePoint" />
            <mxPoint x="40" y="-20" as="targetPoint" />
          </mxGeometry>
        </mxCell>
        <mxCell id="vOfl9ptYlDWNYr21zags-12" value="Apellidos" style="ellipse;whiteSpace=wrap;html=1;" vertex="1" parent="1">
          <mxGeometry x="-140" y="20" width="100" height="50" as="geometry" />
        </mxCell>
        <mxCell id="vOfl9ptYlDWNYr21zags-13" value="" style="endArrow=none;html=1;rounded=0;strokeColor=default;entryX=0.25;entryY=1;entryDx=0;entryDy=0;exitX=0.5;exitY=0;exitDx=0;exitDy=0;" edge="1" parent="1" source="vOfl9ptYlDWNYr21zags-12" target="vOfl9ptYlDWNYr21zags-7">
          <mxGeometry width="50" height="50" relative="1" as="geometry">
            <mxPoint x="-150" y="60" as="sourcePoint" />
            <mxPoint x="-70" y="-30" as="targetPoint" />
          </mxGeometry>
        </mxCell>
        <mxCell id="vOfl9ptYlDWNYr21zags-14" value="Rol" style="ellipse;whiteSpace=wrap;html=1;" vertex="1" parent="1">
          <mxGeometry x="-10" y="70" width="100" height="30" as="geometry" />
        </mxCell>
        <mxCell id="vOfl9ptYlDWNYr21zags-15" value="" style="endArrow=none;html=1;rounded=0;strokeColor=default;exitX=0.5;exitY=0;exitDx=0;exitDy=0;entryX=0.5;entryY=1;entryDx=0;entryDy=0;" edge="1" parent="1" source="vOfl9ptYlDWNYr21zags-14" target="vOfl9ptYlDWNYr21zags-7">
          <mxGeometry width="50" height="50" relative="1" as="geometry">
            <mxPoint x="80" y="90" as="sourcePoint" />
            <mxPoint x="60" y="-30" as="targetPoint" />
          </mxGeometry>
        </mxCell>
        <mxCell id="vOfl9ptYlDWNYr21zags-16" value="Nombre" style="ellipse;whiteSpace=wrap;html=1;" vertex="1" parent="1">
          <mxGeometry x="40" y="-240" width="100" height="40" as="geometry" />
        </mxCell>
        <mxCell id="vOfl9ptYlDWNYr21zags-17" value="" style="endArrow=none;html=1;rounded=0;exitX=0.5;exitY=0;exitDx=0;exitDy=0;" edge="1" parent="1" source="vOfl9ptYlDWNYr21zags-7" target="vOfl9ptYlDWNYr21zags-16">
          <mxGeometry width="50" height="50" relative="1" as="geometry">
            <mxPoint x="420" y="-235" as="sourcePoint" />
            <mxPoint x="732.5735931288073" y="-485.8578643762688" as="targetPoint" />
          </mxGeometry>
        </mxCell>
        <mxCell id="vOfl9ptYlDWNYr21zags-18" value="Mercado Financiero" style="rounded=0;whiteSpace=wrap;html=1;" vertex="1" parent="1">
          <mxGeometry x="700" y="-170" width="120" height="60" as="geometry" />
        </mxCell>
        <mxCell id="vOfl9ptYlDWNYr21zags-19" value="&lt;u&gt;Fecha&lt;/u&gt;" style="ellipse;whiteSpace=wrap;html=1;" vertex="1" parent="1">
          <mxGeometry x="580" y="-280" width="100" height="40" as="geometry" />
        </mxCell>
        <mxCell id="vOfl9ptYlDWNYr21zags-20" value="" style="endArrow=none;html=1;rounded=0;strokeColor=default;entryX=0.25;entryY=0;entryDx=0;entryDy=0;exitX=1;exitY=1;exitDx=0;exitDy=0;" edge="1" parent="1" source="vOfl9ptYlDWNYr21zags-19" target="vOfl9ptYlDWNYr21zags-18">
          <mxGeometry width="50" height="50" relative="1" as="geometry">
            <mxPoint x="430" y="-80" as="sourcePoint" />
            <mxPoint x="480" y="-130" as="targetPoint" />
          </mxGeometry>
        </mxCell>
        <mxCell id="vOfl9ptYlDWNYr21zags-21" value="Apertura" style="ellipse;whiteSpace=wrap;html=1;" vertex="1" parent="1">
          <mxGeometry x="530" y="-210" width="90" height="30" as="geometry" />
        </mxCell>
        <mxCell id="vOfl9ptYlDWNYr21zags-22" value="" style="endArrow=none;html=1;rounded=0;strokeColor=default;entryX=0;entryY=0.5;entryDx=0;entryDy=0;exitX=1;exitY=0.5;exitDx=0;exitDy=0;" edge="1" parent="1" source="vOfl9ptYlDWNYr21zags-21" target="vOfl9ptYlDWNYr21zags-18">
          <mxGeometry width="50" height="50" relative="1" as="geometry">
            <mxPoint x="580" y="-60" as="sourcePoint" />
            <mxPoint x="680" y="-110" as="targetPoint" />
          </mxGeometry>
        </mxCell>
        <mxCell id="vOfl9ptYlDWNYr21zags-23" value="Maximo" style="ellipse;whiteSpace=wrap;html=1;" vertex="1" parent="1">
          <mxGeometry x="500" y="-140" width="90" height="30" as="geometry" />
        </mxCell>
        <mxCell id="vOfl9ptYlDWNYr21zags-24" value="" style="endArrow=none;html=1;rounded=0;strokeColor=default;entryX=0;entryY=0.75;entryDx=0;entryDy=0;exitX=0.5;exitY=0;exitDx=0;exitDy=0;" edge="1" parent="1" source="vOfl9ptYlDWNYr21zags-23" target="vOfl9ptYlDWNYr21zags-18">
          <mxGeometry width="50" height="50" relative="1" as="geometry">
            <mxPoint x="490" y="-30" as="sourcePoint" />
            <mxPoint x="570" y="-120" as="targetPoint" />
          </mxGeometry>
        </mxCell>
        <mxCell id="vOfl9ptYlDWNYr21zags-25" value="Minima" style="ellipse;whiteSpace=wrap;html=1;" vertex="1" parent="1">
          <mxGeometry x="560" y="-60" width="80" height="30" as="geometry" />
        </mxCell>
        <mxCell id="vOfl9ptYlDWNYr21zags-26" value="" style="endArrow=none;html=1;rounded=0;strokeColor=default;exitX=0.5;exitY=0;exitDx=0;exitDy=0;entryX=0.5;entryY=1;entryDx=0;entryDy=0;" edge="1" parent="1" source="vOfl9ptYlDWNYr21zags-25" target="vOfl9ptYlDWNYr21zags-18">
          <mxGeometry width="50" height="50" relative="1" as="geometry">
            <mxPoint x="720" as="sourcePoint" />
            <mxPoint x="700" y="-120" as="targetPoint" />
          </mxGeometry>
        </mxCell>
        <mxCell id="vOfl9ptYlDWNYr21zags-27" value="&lt;u&gt;Tipo&lt;/u&gt;" style="ellipse;whiteSpace=wrap;html=1;" vertex="1" parent="1">
          <mxGeometry x="680" y="-330" width="100" height="40" as="geometry" />
        </mxCell>
        <mxCell id="vOfl9ptYlDWNYr21zags-28" value="" style="endArrow=none;html=1;rounded=0;exitX=0.5;exitY=0;exitDx=0;exitDy=0;" edge="1" parent="1" source="vOfl9ptYlDWNYr21zags-18" target="vOfl9ptYlDWNYr21zags-27">
          <mxGeometry width="50" height="50" relative="1" as="geometry">
            <mxPoint x="1060" y="-325" as="sourcePoint" />
            <mxPoint x="1372.5735931288073" y="-575.8578643762688" as="targetPoint" />
          </mxGeometry>
        </mxCell>
        <mxCell id="vOfl9ptYlDWNYr21zags-29" value="Cierre" style="ellipse;whiteSpace=wrap;html=1;" vertex="1" parent="1">
          <mxGeometry x="660" y="-20" width="80" height="30" as="geometry" />
        </mxCell>
        <mxCell id="vOfl9ptYlDWNYr21zags-30" value="" style="endArrow=none;html=1;rounded=0;strokeColor=default;exitX=0.5;exitY=0;exitDx=0;exitDy=0;entryX=0.5;entryY=1;entryDx=0;entryDy=0;" edge="1" parent="1" source="vOfl9ptYlDWNYr21zags-29" target="vOfl9ptYlDWNYr21zags-18">
          <mxGeometry width="50" height="50" relative="1" as="geometry">
            <mxPoint x="820" y="40" as="sourcePoint" />
            <mxPoint x="860" y="-70" as="targetPoint" />
          </mxGeometry>
        </mxCell>
        <mxCell id="vOfl9ptYlDWNYr21zags-32" value="" style="endArrow=none;html=1;rounded=0;strokeColor=default;exitX=0.5;exitY=0;exitDx=0;exitDy=0;entryX=0.75;entryY=1;entryDx=0;entryDy=0;" edge="1" parent="1" source="vOfl9ptYlDWNYr21zags-33" target="vOfl9ptYlDWNYr21zags-18">
          <mxGeometry width="50" height="50" relative="1" as="geometry">
            <mxPoint x="810" as="sourcePoint" />
            <mxPoint x="870" y="-90" as="targetPoint" />
          </mxGeometry>
        </mxCell>
        <mxCell id="vOfl9ptYlDWNYr21zags-33" value="Volumen" style="ellipse;whiteSpace=wrap;html=1;" vertex="1" parent="1">
          <mxGeometry x="790" y="-20" width="80" height="30" as="geometry" />
        </mxCell>
      </root>
    </mxGraphModel>
  </diagram>
</mxfile>
